<svg width="1500" height="266" viewBox="0 0 1500 266" fill="none" xmlns="http://www.w3.org/2000/svg">
<g clip-path="url(#clip0_1735_2)">
<path d="M366.446 44.0505V65.4024C382.027 46.3587 408.38 40.7803 432.234 40.7803C495.519 41.5497 512.832 86.7544 512.447 140.23V258.339H446.661V140.808C446.661 111.761 429.733 98.873 412.228 98.873C400.905 99.0901 390.122 103.75 382.205 111.847C374.288 119.944 369.871 130.83 369.909 142.154V258.724H301.236V44.0505H366.446Z" fill="#150C2F"/>
<path d="M1173.01 44.0505H1239.95V53.8609L1160.32 259.109L1102.8 259.301L1018.55 53.8609V44.0505H1086.83L1129.54 167.354L1173.01 44.0505Z" fill="#150C2F"/>
<path d="M1433.85 151.464C1433.85 78.5601 1326.71 78.9448 1326.71 151.464C1326.71 223.214 1433.85 223.599 1433.85 151.464ZM1261.69 151.464C1261.69 -1.6541 1498.68 -1.26938 1498.68 151.464C1498.68 304.199 1261.69 303.429 1261.69 151.464Z" fill="#150C2F"/>
<path d="M114.647 202.17C81.3683 202.17 64.4406 175.625 65.0177 149.849C65.5948 123.688 81.9454 98.6808 114.647 98.6808C142.539 98.6808 165.237 122.149 165.237 150.618C165.356 164.16 160.094 177.196 150.608 186.862C141.123 196.528 128.189 202.034 114.647 202.17ZM209.096 44.8199H165.237V67.1337C150.81 49.2442 129.458 41.3574 107.722 41.3574C35.779 41.3574 0.769502 89.8322 6.08257e-05 148.502C-0.38466 207.364 36.3561 261.994 106.952 261.994C128.304 261.994 150.041 256.031 165.237 237.758V259.185H229.679V93.7563L209.096 44.8199Z" fill="#150C2F"/>
<path d="M859.657 202.17C826.379 202.17 809.644 175.625 810.029 149.848C810.414 123.688 826.957 98.6808 859.657 98.6808C887.549 98.6808 910.248 122.149 910.248 150.618C910.335 164.151 905.064 177.17 895.585 186.828C886.106 196.488 873.189 202.004 859.657 202.17ZM953.914 44.8199H910.055V67.1337C895.628 49.2442 874.277 41.3574 852.541 41.3574C780.597 41.3574 745.779 89.8322 744.819 148.502C744.434 207.556 780.982 262.379 851.578 262.379C872.93 262.379 894.667 256.416 909.863 238.141V259.494H974.303V94.0641L953.914 44.8199Z" fill="#150C2F"/>
<path d="M687.687 209.288C672.105 209.288 657.68 203.325 657.68 184.282V100.027H703.268L680.762 46.3589H657.68V0L593.238 5.57844V46.3589H564V100.027H593.238V184.282C593.238 240.258 623.247 262.379 672.875 261.994C684.733 261.837 696.564 260.809 708.27 258.916L706.153 207.364C700.071 208.575 693.889 209.219 687.687 209.288Z" fill="#150C2F"/>
</g>
<defs>
<clipPath id="clip0_1735_2">
<rect width="1500" height="266" fill="white"/>
</clipPath>
</defs>
</svg>
